<svg xmlns="http://www.w3.org/2000/svg" width="12" height="12" fill="none" viewBox="0 0 12 12">
  <path stroke="currentColor" stroke-linecap="round" stroke-linejoin="round" d="M1.125 3.375a7.5 7.5 0 0 0 7.5 7.5H9.75c.621 0 1.125-.504 1.125-1.125v-.686a.563.563 0 0 0-.426-.546l-2.212-.552a.562.562 0 0 0-.586.208l-.485.647a.53.53 0 0 1-.605.19A6.018 6.018 0 0 1 2.99 5.439a.53.53 0 0 1 .19-.605l.647-.485a.562.562 0 0 0 .208-.586L3.482 1.55a.563.563 0 0 0-.546-.426H2.25c-.621 0-1.125.504-1.125 1.125v1.125Z"/>
</svg>
