<svg xmlns="http://www.w3.org/2000/svg" width="16" height="16" fill="none" viewBox="0 0 16 16">
  <path stroke="currentColor" stroke-linecap="round" stroke-linejoin="round" stroke-width="1.2" d="M1.5 4.5c0 5.523 4.477 10 10 10H13a1.5 1.5 0 0 0 1.5-1.5v-.914a.75.75 0 0 0-.568-.728l-2.949-.737a.75.75 0 0 0-.782.277l-.647.863a.708.708 0 0 1-.806.253 8.024 8.024 0 0 1-4.762-4.762.708.708 0 0 1 .253-.806l.863-.647a.75.75 0 0 0 .277-.782l-.737-2.949a.75.75 0 0 0-.728-.568H3A1.5 1.5 0 0 0 1.5 3v1.5Z"/>
</svg>
