<svg xmlns="http://www.w3.org/2000/svg" width="12" height="12" fill="none" viewBox="0 0 12 12">
  <path stroke="currentColor" stroke-linecap="round" stroke-linejoin="round" d="M3.413 3.087c-.18.29-.482.48-.82.528-.19.027-.379.056-.567.087a1.09 1.09 0 0 0-.901 1.085V9c0 .621.504 1.125 1.125 1.125h7.5c.621 0 1.125-.504 1.125-1.125V4.787a1.09 1.09 0 0 0-.901-1.085 24.01 24.01 0 0 0-.567-.087 1.155 1.155 0 0 1-.82-.528l-.411-.658c-.19-.303-.511-.5-.868-.519a24.387 24.387 0 0 0-2.616 0c-.357.02-.679.216-.868.52l-.41.657Z"/>
  <path stroke="currentColor" stroke-linecap="round" stroke-linejoin="round" d="M8.25 6.375a2.25 2.25 0 1 1-4.5 0 2.25 2.25 0 0 1 4.5 0ZM9.375 5.25h.004v.004h-.004V5.25Z"/>
</svg>
