<svg xmlns="http://www.w3.org/2000/svg" width="16" height="16" fill="none" viewBox="0 0 16 16">
  <path stroke="currentColor" stroke-linecap="round" stroke-linejoin="round" stroke-width="1.2" d="M4.551 4.117a1.54 1.54 0 0 1-1.094.703c-.253.036-.505.075-.756.117A1.453 1.453 0 0 0 1.5 6.383V12A1.5 1.5 0 0 0 3 13.5h10a1.5 1.5 0 0 0 1.5-1.5V6.383c0-.712-.5-1.33-1.201-1.446a31.287 31.287 0 0 0-.756-.117 1.54 1.54 0 0 1-1.094-.703l-.548-.878a1.462 1.462 0 0 0-1.157-.692 32.516 32.516 0 0 0-3.488 0 1.461 1.461 0 0 0-1.157.692l-.548.878Z"/>
  <path stroke="currentColor" stroke-linecap="round" stroke-linejoin="round" stroke-width="1.2" d="M11 8.5a3 3 0 1 1-6 0 3 3 0 0 1 6 0ZM12.5 7h.005v.005H12.5V7Z"/>
</svg>
