<svg width="12" height="12" viewBox="0 0 12 12" fill="none" xmlns="http://www.w3.org/2000/svg">
  <path
    d="M10.125 4.25552C10.567 4.39774 10.875 4.8196 10.875 5.30411V7.44689C10.875 8.01521 10.4513 8.49713 9.88486 8.54335C9.7154 8.55718 9.54544 8.56928 9.375 8.57962V10.125L7.875 8.625C7.19813 8.62499 6.5278 8.5974 5.86511 8.54331C5.71596 8.53113 5.5767 8.48875 5.45247 8.42253M10.125 4.25552C10.0493 4.23116 9.96966 4.215 9.88696 4.20814C9.22359 4.15308 8.55257 4.125 7.87498 4.125C7.19741 4.125 6.5264 4.15308 5.86304 4.20814C5.2975 4.25507 4.875 4.73661 4.875 5.30411V7.44685C4.875 7.86551 5.10493 8.23728 5.45247 8.42253M10.125 4.25552V3.31865C10.125 2.50795 9.54913 1.80532 8.74516 1.70095C7.72391 1.56838 6.68251 1.5 5.62514 1.5C4.56767 1.5 3.52616 1.56839 2.50482 1.70099C1.70086 1.80537 1.125 2.50799 1.125 3.31869V6.43132C1.125 7.24202 1.70087 7.94464 2.50482 8.04902C2.7933 8.08647 3.0834 8.1188 3.375 8.14591V10.5L5.45247 8.42253"
    stroke="currentColor" stroke-linecap="round" stroke-linejoin="round" />
</svg>