<svg xmlns="http://www.w3.org/2000/svg" width="16" height="16" fill="none" viewBox="0 0 16 16">
  <path stroke="currentColor" stroke-linecap="round" stroke-linejoin="round" stroke-width="1.2" d="M6 8.5 7.5 10 10 6.5M14 8c0 .846-.42 1.593-1.062 2.045.134.775-.098 1.6-.696 2.198a2.497 2.497 0 0 1-2.197.695A2.497 2.497 0 0 1 8 14c-.845 0-1.593-.42-2.045-1.062a2.497 2.497 0 0 1-2.198-.695 2.497 2.497 0 0 1-.695-2.198A2.497 2.497 0 0 1 2 8c0-.845.42-1.593 1.062-2.045-.134-.774.097-1.6.695-2.198a2.497 2.497 0 0 1 2.198-.695A2.497 2.497 0 0 1 8 2c.845 0 1.593.42 2.045 1.062a2.498 2.498 0 0 1 2.893 2.893A2.497 2.497 0 0 1 14 8Z"/>
</svg>
