<svg width="44" height="44" viewBox="0 0 44 44" fill="none" xmlns="http://www.w3.org/2000/svg">
  <g clip-path="url(#clip0_15_1262)">
    <path
      d="M22 44C34.1503 44 44 34.1503 44 22C44 9.84974 34.1503 0 22 0C9.84974 0 0 9.84974 0 22C0 34.1503 9.84974 44 22 44Z"
      fill="#1269EA" />
    <path
      d="M26.5 22C26.5 24.4853 24.4853 26.5 22 26.5C19.5147 26.5 17.5 24.4853 17.5 22C17.5 19.5147 19.5147 17.5 22 17.5C24.4853 17.5 26.5 19.5147 26.5 22ZM26.5 22C26.5 23.6569 27.5074 25 28.75 25C29.9926 25 31 23.6569 31 22C31 19.6967 30.1213 17.3934 28.364 15.636C24.8492 12.1213 19.1508 12.1213 15.636 15.636C12.1213 19.1508 12.1213 24.8492 15.636 28.364C19.1508 31.8787 24.8492 31.8787 28.364 28.364M26.5 22V18.25"
      stroke="white" stroke-width="1.5" stroke-linecap="round" stroke-linejoin="round" />
  </g>
  <defs>
    <clipPath id="clip0_15_1262">
      <rect width="44" height="44" fill="white" />
    </clipPath>
  </defs>
</svg>