<svg width="44" height="44" viewBox="0 0 44 44" fill="none" xmlns="http://www.w3.org/2000/svg">
  <g clip-path="url(#clip0_15_1254)">
    <path
      d="M22 44C34.1503 44 44 34.1503 44 22C44 9.84974 34.1503 0 22 0C9.84974 0 0 9.84974 0 22C0 34.1503 9.84974 44 22 44Z"
      fill="#FF9800" />
    <path
      d="M22 10.4209C20.8446 10.4209 19.7152 10.7635 18.7546 11.4054C17.7939 12.0473 17.0452 12.9596 16.6031 14.027C16.1609 15.0944 16.0452 16.269 16.2706 17.4021C16.496 18.5353 17.0524 19.5761 17.8693 20.3931C18.6863 21.2101 19.7272 21.7664 20.8603 21.9918C21.9935 22.2172 23.168 22.1015 24.2354 21.6594C25.3029 21.2173 26.2152 20.4685 26.8571 19.5079C27.4989 18.5472 27.8415 17.4178 27.8415 16.2625C27.8419 15.4952 27.6911 14.7355 27.3977 14.0266C27.1042 13.3176 26.674 12.6735 26.1314 12.131C25.5889 11.5885 24.9448 11.1582 24.2359 10.8648C23.527 10.5714 22.7672 10.4205 22 10.4209ZM22 19.1746C21.424 19.1746 20.861 19.0038 20.3821 18.6838C19.9032 18.3638 19.5299 17.909 19.3095 17.3769C19.0891 16.8448 19.0315 16.2592 19.1438 15.6944C19.2562 15.1295 19.5335 14.6106 19.9408 14.2033C20.3481 13.796 20.867 13.5187 21.4318 13.4063C21.9967 13.294 22.5823 13.3516 23.1144 13.572C23.6465 13.7925 24.1013 14.1657 24.4213 14.6446C24.7413 15.1235 24.9121 15.6865 24.9121 16.2625C24.9125 16.645 24.8374 17.0239 24.6912 17.3773C24.545 17.7308 24.3305 18.052 24.06 18.3225C23.7895 18.593 23.4683 18.8075 23.1148 18.9537C22.7613 19.0999 22.3825 19.175 22 19.1746Z"
      fill="white" />
    <path
      d="M30.6089 22.9988C30.4817 22.7717 30.311 22.5719 30.1065 22.4109C29.902 22.2498 29.6678 22.1307 29.4172 22.0602C29.1666 21.9898 28.9046 21.9694 28.6462 22.0003C28.3877 22.0313 28.1379 22.1128 27.911 22.2404C23.9336 24.4694 20.0663 24.4694 16.0889 22.2404C15.8608 22.1131 15.6099 22.0319 15.3504 22.0015C15.091 21.9711 14.8281 21.9922 14.5767 22.0634C14.3254 22.1346 14.0906 22.2547 13.8856 22.4167C13.6807 22.5787 13.5097 22.7794 13.3823 23.0075C13.255 23.2356 13.1738 23.4865 13.1434 23.746C13.1131 24.0055 13.1341 24.2684 13.2053 24.5197C13.3492 25.0273 13.6888 25.4569 14.1494 25.7141C15.4543 26.4546 16.8482 27.0256 18.2976 27.4133L15.4839 30.227C15.1143 30.5967 14.9066 31.098 14.9066 31.6208C14.9066 32.1436 15.1143 32.6449 15.4839 33.0146C15.8536 33.3842 16.355 33.5919 16.8777 33.5919C17.4005 33.5919 17.9019 33.3842 18.2715 33.0146L22 29.2717L25.7284 33.0001C26.0981 33.3698 26.5994 33.5774 27.1222 33.5774C27.645 33.5774 28.1463 33.3698 28.516 33.0001C28.8856 32.6305 29.0933 32.1291 29.0933 31.6063C29.0933 31.0836 28.8856 30.5822 28.516 30.2125L25.7023 27.3988C27.1517 27.0112 28.5457 26.4401 29.8505 25.6996C30.078 25.5724 30.2781 25.4016 30.4394 25.1969C30.6007 24.9922 30.72 24.7576 30.7905 24.5067C30.861 24.2558 30.8812 23.9934 30.85 23.7347C30.8189 23.4759 30.7369 23.2259 30.6089 22.9988Z"
      fill="white" />
  </g>
  <defs>
    <clipPath id="clip0_15_1254">
      <rect width="44" height="44" fill="white" />
    </clipPath>
  </defs>
</svg>