<svg width="44" height="44" viewBox="0 0 44 44" fill="none" xmlns="http://www.w3.org/2000/svg">
  <g clip-path="url(#clip0_15_1235)">
    <path
      d="M22 44C34.1503 44 44 34.1503 44 22C44 9.84974 34.1503 0 22 0C9.84974 0 0 9.84974 0 22C0 34.1503 9.84974 44 22 44Z"
      fill="#039BE5" />
    <path
      d="M10.0668 21.5232L31.2785 13.3447C32.263 12.9891 33.1228 13.5849 32.8038 15.0736L32.8057 15.0717L29.194 32.0869C28.9263 33.2932 28.2095 33.5866 27.2067 33.0182L21.7067 28.9647L19.0538 31.5204C18.7605 31.8137 18.513 32.0612 17.9447 32.0612L18.3352 26.4641L28.5285 17.2552C28.9722 16.8647 28.4295 16.6447 27.8447 17.0334L15.2478 24.9644L9.81749 23.2704C8.63866 22.8964 8.61299 22.0916 10.0668 21.5232Z"
      fill="white" />
  </g>
  <defs>
    <clipPath id="clip0_15_1235">
      <rect width="44" height="44" fill="white" />
    </clipPath>
  </defs>
</svg>