<svg width="44" height="44" viewBox="0 0 44 44" fill="none" xmlns="http://www.w3.org/2000/svg">
  <g clip-path="url(#clip0_15_1238)">
    <path
      d="M22 44C34.1503 44 44 34.1503 44 22C44 9.84974 34.1503 0 22 0C9.84974 0 0 9.84974 0 22C0 34.1503 9.84974 44 22 44Z"
      fill="#665CAC" />
    <path
      d="M24.3158 10.4209H19.6842C17.5346 10.4209 15.473 11.2748 13.9529 12.7949C12.4329 14.3149 11.5789 16.3765 11.5789 18.5262V21.9998C11.5783 23.5342 12.0132 25.0373 12.8331 26.3343C13.653 27.6312 14.8242 28.6688 16.2105 29.3264V33.1967C16.2119 33.2722 16.2353 33.3456 16.2778 33.4081C16.3204 33.4705 16.3802 33.5191 16.45 33.548C16.5197 33.5769 16.5964 33.5848 16.6706 33.5707C16.7448 33.5566 16.8133 33.5212 16.8676 33.4688L20.2313 30.1051H24.3158C26.4654 30.1051 28.527 29.2512 30.0471 27.7311C31.5671 26.2111 32.4211 24.1495 32.4211 21.9998V18.5262C32.4211 16.3765 31.5671 14.3149 30.0471 12.7949C28.527 11.2748 26.4654 10.4209 24.3158 10.4209ZM27.3495 25.6125L26.1916 26.7704C24.9584 27.9775 21.7395 26.5996 18.9026 23.702C16.0658 20.8043 14.8211 17.5535 16.0079 16.3464L17.1658 15.1885C17.3927 14.9848 17.6878 14.8736 17.9927 14.8768C18.2977 14.88 18.5903 14.9974 18.8129 15.2059L20.5034 16.9427C20.6377 17.0813 20.7345 17.2517 20.7848 17.438C20.8351 17.6242 20.8371 17.8202 20.7908 18.0075C20.7445 18.1948 20.6513 18.3672 20.52 18.5086C20.3887 18.65 20.2236 18.7556 20.0403 18.8156C19.7685 18.899 19.5392 19.0839 19.4002 19.3319C19.2611 19.5798 19.2229 19.8718 19.2934 20.1472C19.5829 21.4325 21.2155 23.042 22.4313 23.3575C22.7054 23.4228 22.9939 23.3859 23.2428 23.2538C23.4916 23.1216 23.6838 22.9032 23.7832 22.6396C23.8474 22.4557 23.9578 22.2914 24.1039 22.1626C24.25 22.0338 24.4268 21.9447 24.6173 21.904C24.8077 21.8633 25.0055 21.8723 25.1915 21.9302C25.3775 21.988 25.5454 22.0928 25.6792 22.2343L27.3668 23.9712C27.5695 24.1974 27.6802 24.4914 27.6769 24.7952C27.6737 25.099 27.5569 25.3905 27.3495 25.6125ZM23.0537 15.9209C22.9385 15.9204 22.8235 15.9271 22.7092 15.9412C22.6588 15.9467 22.6079 15.9422 22.5592 15.928C22.5106 15.9138 22.4652 15.8902 22.4257 15.8585C22.3862 15.8268 22.3533 15.7876 22.3289 15.7432C22.3046 15.6987 22.2892 15.65 22.2837 15.5996C22.2782 15.5492 22.2826 15.4983 22.2968 15.4496C22.311 15.401 22.3346 15.3556 22.3663 15.3161C22.3981 15.2766 22.4373 15.2437 22.4817 15.2193C22.5261 15.1949 22.5749 15.1796 22.6253 15.1741C22.7675 15.1577 22.9105 15.1499 23.0537 15.1509C24.0781 15.1501 25.0609 15.5561 25.7861 16.2797C26.5113 17.0033 26.9195 17.9852 26.9211 19.0096C26.922 19.1527 26.9143 19.2958 26.8979 19.438C26.8924 19.4884 26.877 19.5372 26.8526 19.5816C26.8283 19.626 26.7954 19.6652 26.7559 19.6969C26.7164 19.7286 26.671 19.7523 26.6223 19.7664C26.5737 19.7806 26.5227 19.7851 26.4724 19.7796C26.422 19.7741 26.3732 19.7587 26.3288 19.7343C26.2844 19.71 26.2452 19.6771 26.2135 19.6376C26.1817 19.598 26.1581 19.5527 26.1439 19.504C26.1297 19.4554 26.1253 19.4044 26.1308 19.3541C26.1434 19.2397 26.1502 19.1247 26.1511 19.0096C26.1495 18.1894 25.8224 17.4033 25.2416 16.8242C24.6609 16.245 23.8739 15.9201 23.0537 15.9209ZM25.3695 19.0096C25.3611 19.1063 25.3168 19.1964 25.2452 19.262C25.1737 19.3276 25.0801 19.364 24.983 19.364C24.8859 19.364 24.7924 19.3276 24.7208 19.262C24.6493 19.1964 24.605 19.1063 24.5966 19.0096C24.5966 18.6004 24.434 18.2079 24.1447 17.9186C23.8553 17.6292 23.4629 17.4667 23.0537 17.4667C23.0001 17.4713 22.9462 17.4648 22.8953 17.4475C22.8444 17.4302 22.7977 17.4025 22.758 17.3661C22.7184 17.3298 22.6868 17.2856 22.6651 17.2364C22.6435 17.1872 22.6323 17.134 22.6323 17.0802C22.6323 17.0265 22.6435 16.9733 22.6651 16.9241C22.6868 16.8749 22.7184 16.8307 22.758 16.7944C22.7977 16.758 22.8444 16.7303 22.8953 16.713C22.9462 16.6957 23.0001 16.6892 23.0537 16.6938C23.6679 16.6938 24.2569 16.9378 24.6912 17.3721C25.1255 17.8064 25.3695 18.3954 25.3695 19.0096ZM28.3134 20.263C28.3049 20.3156 28.2855 20.3659 28.2567 20.4107C28.2278 20.4556 28.19 20.494 28.1456 20.5235C28.1013 20.5531 28.0513 20.5732 27.9988 20.5826C27.9463 20.5919 27.8925 20.5904 27.8406 20.578C27.7887 20.5657 27.74 20.5427 27.6974 20.5107C27.6548 20.4786 27.6192 20.4381 27.593 20.3917C27.5667 20.3453 27.5503 20.294 27.5448 20.241C27.5392 20.188 27.5447 20.1344 27.5608 20.0835C27.6444 19.7337 27.6862 19.3751 27.6853 19.0154C27.6853 17.787 27.1973 16.6089 26.3287 15.7404C25.4601 14.8718 24.2821 14.3838 23.0537 14.3838C22.935 14.3838 22.8134 14.3838 22.6947 14.3838C22.6442 14.3876 22.5934 14.3814 22.5452 14.3656C22.497 14.3497 22.4525 14.3246 22.414 14.2915C22.3364 14.2247 22.2885 14.1298 22.2808 14.0277C22.2731 13.9256 22.3063 13.8247 22.3731 13.747C22.4399 13.6694 22.5347 13.6215 22.6368 13.6138C22.7758 13.6022 22.9147 13.5964 23.0537 13.5964C24.4878 13.5987 25.8625 14.1701 26.8758 15.185C27.889 16.1999 28.4582 17.5754 28.4582 19.0096C28.4583 19.4316 28.4097 19.8522 28.3134 20.263Z"
      fill="white" />
  </g>
  <defs>
    <clipPath id="clip0_15_1238">
      <rect width="44" height="44" fill="white" />
    </clipPath>
  </defs>
</svg>