<svg width="44" height="44" viewBox="0 0 44 44" fill="none" xmlns="http://www.w3.org/2000/svg">
  <g clip-path="url(#clip0_15_1250)">
    <path
      d="M22 0C9.84973 0 0 9.84973 0 22C0 34.1503 9.84973 44 22 44C34.1503 44 44 34.1503 44 22C44 9.84973 34.1503 0 22 0ZM34.9106 30.0387L31.1156 30.0908C31.1156 30.0908 30.2992 30.2528 29.2282 29.5118C27.8069 28.5362 26.4695 26.0034 25.4274 26.3276C24.3854 26.6517 24.4027 28.9328 24.4027 28.9328C24.4061 29.2004 24.3239 29.462 24.1683 29.6797C23.9492 29.8674 23.679 29.9853 23.3925 30.0184H21.7106C21.7106 30.0184 17.9475 30.2413 14.662 26.8081C11.0493 23.0797 7.86801 15.6315 7.86801 15.6315C7.86801 15.6315 7.68066 15.1995 7.88537 14.9078C8.06231 14.6557 8.4987 14.6286 8.71905 14.6184C9.66891 14.574 12.5227 14.5924 12.5227 14.5924C12.7615 14.5864 12.9219 14.599 13.2174 14.7284C13.4715 14.854 13.6641 15.041 13.7877 15.3421C14.2268 16.4354 14.7364 17.499 15.3133 18.5263C17.0096 21.4587 17.7999 22.0984 18.3759 21.7858C19.2125 21.3284 18.9549 17.6434 18.9549 17.6434C18.9549 17.6434 18.9549 16.3031 18.5322 15.7097C18.2141 15.338 17.7654 15.1028 17.2789 15.0526C17.0502 15.0208 17.4265 14.491 17.9128 14.2537C18.6423 13.8947 19.9334 13.8947 21.4559 13.8947C22.126 13.8695 22.7963 13.9377 23.4475 14.0974C24.8486 14.436 24.3738 15.7387 24.3738 18.8708C24.3738 19.8724 24.1915 21.285 24.9152 21.7655C25.2278 21.9652 25.9862 21.7944 27.8909 18.5639C28.4986 17.4948 29.0259 16.3822 29.4686 15.2349C29.5538 15.0526 29.6832 14.8944 29.8449 14.7746C30.0159 14.6895 30.2081 14.6563 30.3978 14.6791L34.6705 14.6501C34.6705 14.6501 35.9528 14.4967 36.1612 15.0785C36.3696 15.6604 35.6806 17.1048 33.9352 19.4206C31.0694 23.2416 30.7509 22.8943 33.1305 25.0913C35.4028 27.2016 35.8747 28.2293 35.9528 28.3566C36.8963 29.9142 34.9106 30.0387 34.9106 30.0387Z"
      fill="#4C75A3" />
  </g>
  <defs>
    <clipPath id="clip0_15_1250">
      <rect width="44" height="44" fill="white" />
    </clipPath>
  </defs>
</svg>