<svg width="44" height="44" viewBox="0 0 44 44" fill="none" xmlns="http://www.w3.org/2000/svg">
  <g clip-path="url(#clip0_15_1244)">
    <path
      d="M22 44C34.1503 44 44 34.1503 44 22C44 9.84974 34.1503 0 22 0C9.84974 0 0 9.84974 0 22C0 34.1503 9.84974 44 22 44Z"
      fill="#4CAF50" />
    <path
      d="M22 10.4209C19.8668 10.4217 17.7753 11.0118 15.9563 12.126C14.1372 13.2403 12.6614 14.8354 11.6915 16.7353C10.7216 18.6352 10.2954 20.7662 10.4599 22.893C10.6245 25.0198 11.3734 27.0599 12.6239 28.788L11.1766 33.0896L15.6316 31.6654C17.1387 32.6595 18.8574 33.2875 20.6505 33.499C22.4435 33.7106 24.2612 33.4999 25.9583 32.8839C27.6554 32.2678 29.1849 31.2634 30.4247 29.9509C31.6645 28.6384 32.5802 27.0541 33.0986 25.3247C33.617 23.5952 33.7239 21.7685 33.4105 19.9904C33.0972 18.2124 32.3724 16.5322 31.2941 15.0841C30.2157 13.636 28.8137 12.4602 27.1999 11.6505C25.5862 10.8409 23.8055 10.4198 22 10.4209ZM28.1542 26.7964L26.921 28.0296C25.6242 29.3264 22.1853 27.8993 19.1371 24.8454C16.0889 21.7914 14.7226 18.3612 15.9558 17.0788L17.1889 15.8456C17.4277 15.6261 17.7403 15.5043 18.0646 15.5043C18.3889 15.5043 18.7015 15.6261 18.9403 15.8456L20.7582 17.6577C20.9064 17.8018 21.0151 17.9816 21.074 18.1798C21.1328 18.378 21.1397 18.588 21.0941 18.7896C21.0485 18.9913 20.9519 19.1778 20.8134 19.3314C20.675 19.485 20.4995 19.6004 20.3037 19.6667C20.0148 19.759 19.7726 19.9592 19.6276 20.2255C19.4825 20.4919 19.4458 20.8039 19.525 21.0967C19.8492 22.4572 21.6005 24.1448 22.9003 24.4691C23.1915 24.5302 23.4949 24.4842 23.755 24.3395C24.015 24.1949 24.2141 23.9613 24.3158 23.6817C24.3813 23.483 24.4972 23.3047 24.6522 23.1642C24.8072 23.0237 24.996 22.9258 25.2001 22.88C25.4042 22.8342 25.6167 22.8421 25.8169 22.903C26.017 22.9638 26.198 23.0756 26.3421 23.2272L28.1571 25.0451C28.3762 25.2843 28.4975 25.597 28.497 25.9213C28.4964 26.2457 28.3741 26.558 28.1542 26.7964Z"
      fill="white" />
  </g>
  <defs>
    <clipPath id="clip0_15_1244">
      <rect width="44" height="44" fill="white" />
    </clipPath>
  </defs>
</svg>