<svg width="216" height="30" viewBox="0 0 216 30" fill="none" xmlns="http://www.w3.org/2000/svg">
  <path
    d="M0.109375 29V0.5625H12.5508C15.7018 0.5625 18.1237 1.4349 19.8164 3.17969C21.5091 4.92448 22.3555 7.3138 22.3555 10.3477C22.3555 13.3945 21.5221 15.7904 19.8555 17.5352C18.1888 19.2799 15.7214 20.1523 12.4531 20.1523H7.78516V29H0.109375ZM7.78516 14.8594H10.9883C12.3815 14.8594 13.3451 14.4622 13.8789 13.668C14.4128 12.8607 14.6797 11.793 14.6797 10.4648C14.6797 9.13672 14.4062 8.08203 13.8594 7.30078C13.3255 6.50651 12.3685 6.10286 10.9883 6.08984H7.78516V14.8594ZM25.1875 29V0.5625H37.1406C40.2135 0.5625 42.6419 1.38932 44.4258 3.04297C46.2227 4.68359 47.1211 6.92969 47.1211 9.78125C47.1211 12.6849 46.1836 15.0026 44.3086 16.7344C42.4466 18.4661 40.0378 19.332 37.082 19.332H32.8633V29H25.1875ZM32.8633 14.2148H35.832C37.1341 14.2148 38.0521 13.8438 38.5859 13.1016C39.1198 12.3594 39.3932 11.3568 39.4062 10.0938C39.4062 8.84375 39.1328 7.85417 38.5859 7.125C38.0521 6.38281 37.1341 6.01172 35.832 6.01172H32.8633V14.2148ZM39.9336 29L34.3867 16.4414L41.6523 15.0938L48.3711 29H39.9336ZM50.3828 29V0.5625H58.1367V29H50.3828ZM61.5938 15.6016V13.9609C61.5938 9.16927 62.7461 5.66016 65.0508 3.43359C67.3685 1.20703 70.4089 0.09375 74.1719 0.09375C77.7266 0.09375 80.526 0.953125 82.5703 2.67188C84.6146 4.39062 85.6367 6.85156 85.6367 10.0547V11.4805H78.2148V9.54688C78.2148 8.23177 77.8828 7.23568 77.2188 6.55859C76.5547 5.86849 75.5586 5.52344 74.2305 5.52344C72.8242 5.52344 71.7174 6.03125 70.9102 7.04688C70.1029 8.0625 69.6992 9.75521 69.6992 12.125V17.4375C69.6992 19.7422 70.0964 21.4349 70.8906 22.5156C71.6979 23.5833 72.8372 24.1172 74.3086 24.1172C75.5977 24.1172 76.5612 23.7461 77.1992 23.0039C77.8372 22.2487 78.1758 21.1354 78.2148 19.6641V18.1602H85.6367V19.8398C85.5977 22.7956 84.5625 25.1393 82.5312 26.8711C80.513 28.6029 77.7266 29.4688 74.1719 29.4688C70.3307 29.4688 67.2708 28.3359 64.9922 26.0703C62.7266 23.8047 61.5938 20.3151 61.5938 15.6016ZM88.5469 29V0.5625H108.156V6.48047H95.9883V11.832H106.457V17.2422H95.9883V23.2188H108.43V29H88.5469ZM111.242 29V0.5625H118.918V11.2266H126.848V0.5625H134.523V29H126.848V17.3984H118.918V29H111.242ZM136.164 29L145.988 0.503906H154.367L164.172 29H156.34L150.441 10.5039C150.285 10.0091 150.161 9.56641 150.07 9.17578C149.979 8.77214 149.901 8.42057 149.836 8.12109H149.738C149.686 8.42057 149.608 8.77214 149.504 9.17578C149.413 9.56641 149.296 10.0026 149.152 10.4844L143.43 29H136.164ZM142.258 23.707L143.488 18.5117H156.398L157.707 23.707H142.258ZM164.25 15.6016V13.9609C164.25 9.16927 165.402 5.66016 167.707 3.43359C170.025 1.20703 173.065 0.09375 176.828 0.09375C180.383 0.09375 183.182 0.953125 185.227 2.67188C187.271 4.39062 188.293 6.85156 188.293 10.0547V11.4805H180.871V9.54688C180.871 8.23177 180.539 7.23568 179.875 6.55859C179.211 5.86849 178.215 5.52344 176.887 5.52344C175.48 5.52344 174.374 6.03125 173.566 7.04688C172.759 8.0625 172.355 9.75521 172.355 12.125V17.4375C172.355 19.7422 172.753 21.4349 173.547 22.5156C174.354 23.5833 175.493 24.1172 176.965 24.1172C178.254 24.1172 179.217 23.7461 179.855 23.0039C180.493 22.2487 180.832 21.1354 180.871 19.6641V18.1602H188.293V19.8398C188.254 22.7956 187.219 25.1393 185.188 26.8711C183.169 28.6029 180.383 29.4688 176.828 29.4688C172.987 29.4688 169.927 28.3359 167.648 26.0703C165.383 23.8047 164.25 20.3151 164.25 15.6016ZM191.203 29V0.5625H198.879V10.7188L206.77 0.5625H214.719L198.879 19.8203V29H191.203ZM207.062 29L198.781 15.6797L203.488 9.99609L215.93 29H207.062Z"
    fill="#4F5361" />
</svg>