<svg width="34" height="24" viewBox="0 0 34 24" fill="none" xmlns="http://www.w3.org/2000/svg">
  <rect x="0.5" y="0.5" width="33" height="23" rx="3.5" fill="white" />
  <path fill-rule="evenodd" clip-rule="evenodd"
    d="M17.1789 16.8293C15.9948 17.8273 14.459 18.4298 12.7807 18.4298C9.03582 18.4298 6 15.4301 6 11.7298C6 8.02948 9.03582 5.02979 12.7807 5.02979C14.459 5.02979 15.9948 5.63225 17.1789 6.63025C18.3629 5.63225 19.8988 5.02979 21.5771 5.02979C25.3219 5.02979 28.3578 8.02948 28.3578 11.7298C28.3578 15.4301 25.3219 18.4298 21.5771 18.4298C19.8988 18.4298 18.3629 17.8273 17.1789 16.8293Z"
    fill="#ED0006" />
  <path fill-rule="evenodd" clip-rule="evenodd"
    d="M17.1792 16.8291C18.637 15.6002 19.5614 13.7717 19.5614 11.7298C19.5614 9.68791 18.637 7.85937 17.1792 6.63047C18.3633 5.63234 19.8992 5.02979 21.5777 5.02979C25.3225 5.02979 28.3583 8.02948 28.3583 11.7298C28.3583 15.4301 25.3225 18.4298 21.5777 18.4298C19.8992 18.4298 18.3633 17.8272 17.1792 16.8291Z"
    fill="#F9A000" />
  <path fill-rule="evenodd" clip-rule="evenodd"
    d="M17.1789 16.8294C18.6369 15.6005 19.5614 13.7719 19.5614 11.7299C19.5614 9.68791 18.6369 7.85927 17.1789 6.63037C15.7209 7.85927 14.7964 9.68791 14.7964 11.7299C14.7964 13.7719 15.7209 15.6005 17.1789 16.8294Z"
    fill="#FF5E00" />
  <rect x="0.5" y="0.5" width="33" height="23" rx="3.5" stroke="#F2F3F4" />
</svg>