<svg width="34" height="24" viewBox="0 0 34 24" fill="none" xmlns="http://www.w3.org/2000/svg">
  <rect x="0.5" y="0.5" width="33" height="23" rx="3.5" fill="white" />
  <path fill-rule="evenodd" clip-rule="evenodd"
    d="M5.00023 9.00451C5.73523 9.00655 6.47031 9.00556 7.20566 9.00486C7.55179 9.00035 7.89826 9.17894 8.08721 9.47064C8.26305 9.72021 8.32996 10.0223 8.4165 10.3098C8.68263 11.2062 8.94467 12.1039 9.21151 13.0004C9.21601 13.0814 9.33594 13.1124 9.35939 13.0262C9.63179 12.1212 9.89446 11.2135 10.1647 10.3077C10.2575 9.98852 10.3375 9.64958 10.5536 9.38726C10.6926 9.21733 10.887 9.09627 11.0983 9.03972C11.2783 8.98972 11.4669 9.00866 11.6514 9.00556C12.2968 9.00796 12.9425 9.00007 13.5879 9.00972C13.5834 11.2613 13.5903 13.513 13.5841 15.7644C12.8859 15.7599 12.1875 15.7706 11.4893 15.7589C11.4893 14.4381 11.4924 13.1173 11.4879 11.7965C11.4834 11.6789 11.289 11.6889 11.2759 11.7996C10.8601 13.119 10.4415 14.4378 10.0319 15.7589C9.5389 15.7702 9.04524 15.7613 8.55186 15.7634C8.13679 14.4439 7.72474 13.1235 7.30552 11.8055C7.28791 11.6966 7.15932 11.6927 7.09002 11.7566C7.09143 13.0911 7.08833 14.4257 7.09143 15.7603C6.39432 15.7689 5.69721 15.7606 5.00009 15.7644C4.99995 13.5109 4.99995 11.2579 5.00023 9.00451ZM14.5413 9.00859C15.2381 8.99789 15.9355 9.01408 16.6323 9C16.6433 10.3366 16.6337 11.6737 16.6371 13.0103C16.6967 13.0637 16.8064 13.0803 16.8429 12.9917C17.307 12.0191 17.769 11.0455 18.2326 10.0725C18.3795 9.77049 18.4988 9.44303 18.7384 9.19894C18.8456 9.09761 18.979 8.9993 19.1342 9.0062C19.8448 9.00655 20.5553 9.00176 21.2662 9.00859C21.2672 11.2592 21.2672 13.5099 21.2662 15.7604C20.569 15.7659 19.8716 15.7656 19.1741 15.7608C19.1738 14.4275 19.1769 13.094 19.1727 11.7608C19.1709 11.6463 18.9772 11.6557 18.9572 11.7585C18.52 12.7231 18.0846 13.6885 17.6478 14.6531C17.5133 14.9458 17.3857 15.2475 17.1851 15.5026C17.0734 15.6447 16.9103 15.7722 16.7204 15.7636C15.9943 15.7632 15.2679 15.7647 14.5418 15.7629C14.5419 13.5116 14.543 11.2599 14.5413 9.00859ZM22.2857 12.0932C24.4757 12.0785 26.6663 12.0932 28.8562 12.086C28.7824 12.3876 28.5873 12.6473 28.3808 12.8737C27.9733 13.3161 27.3876 13.5861 26.7856 13.6019C25.9857 13.6061 25.1855 13.6012 24.3854 13.6043C24.3805 14.3245 24.3854 15.0444 24.3833 15.7646C23.6855 15.7615 22.9874 15.7666 22.2893 15.7615C22.2857 14.5389 22.2926 13.3161 22.2857 12.0932Z"
    fill="#3DA536" />
  <path fill-rule="evenodd" clip-rule="evenodd"
    d="M22.0195 9.0079C23.6558 9.00578 25.2921 9.00445 26.9283 9.00614C27.3575 9.03684 27.7719 9.21093 28.1119 9.47226C28.6056 9.8567 28.9386 10.4466 28.9934 11.0716C29.0062 11.2968 29.0017 11.5236 28.9683 11.7467C27.9657 11.7525 26.9631 11.7471 25.9605 11.7484C25.6164 11.7453 25.2703 11.7625 24.9286 11.7118C24.1588 11.6142 23.3996 11.2936 22.8542 10.7313C22.3943 10.2704 22.1109 9.6491 22.0195 9.0079Z"
    fill="#008CD2" />
  <rect x="0.5" y="0.5" width="33" height="23" rx="3.5" stroke="#F2F3F4" />
</svg>