<svg width="34" height="24" viewBox="0 0 34 24" fill="none" xmlns="http://www.w3.org/2000/svg">
  <rect x="0.5" y="0.5" width="33" height="23" rx="3.5" fill="white" />
  <g clip-path="url(#clip0_15_1186)">
    <path d="M25.7529 9.43965V12.3857H24.7009V10.3191H23.688V12.3857H22.636V9.43945H25.7529V9.43965Z" fill="black" />
    <path fill-rule="evenodd" clip-rule="evenodd"
      d="M20.4755 12.4911C21.4173 12.4911 22.1166 11.9137 22.1166 11.0383C22.1166 10.1911 21.6006 9.64099 20.7383 9.64099C20.3404 9.64099 20.012 9.78107 19.7647 10.0228C19.8237 9.5232 20.2462 9.15848 20.7113 9.15848C20.8187 9.15848 21.6268 9.15677 21.6268 9.15677L22.0838 8.28223C22.0838 8.28223 21.0692 8.30532 20.5976 8.30532C19.5199 8.3241 18.7919 9.30368 18.7919 10.4934C18.7919 11.8795 19.5019 12.4911 20.4755 12.4911ZM20.4813 10.4156C20.8309 10.4156 21.0733 10.6454 21.0733 11.0382C21.0733 11.3918 20.8579 11.6831 20.4813 11.6839C20.121 11.6839 19.8786 11.414 19.8786 11.0442C19.8786 10.6513 20.121 10.4156 20.4813 10.4156Z"
      fill="black" />
    <path
      d="M17.9357 11.3995C17.9357 11.3995 17.6872 11.5427 17.3162 11.5698C16.8896 11.5824 16.5095 11.313 16.5095 10.8343C16.5095 10.3674 16.8449 10.0998 17.3054 10.0998C17.5878 10.0998 17.9614 10.2955 17.9614 10.2955C17.9614 10.2955 18.2347 9.79388 18.3763 9.54304C18.117 9.34652 17.7717 9.23877 17.37 9.23877C16.3563 9.23877 15.5711 9.89972 15.5711 10.8284C15.5711 11.7689 16.3091 12.4145 17.37 12.395C17.6665 12.384 18.0756 12.2798 18.325 12.1197L17.9357 11.3995Z"
      fill="black" />
    <path d="M5 8.62305L6.45928 11.2314V12.8224L5.00171 15.4257L5 8.62305Z" fill="#5B57A2" />
    <path d="M10.603 10.2821L11.9704 9.44402L14.7689 9.44141L10.603 11.9934V10.2821Z" fill="#D90751" />
    <path d="M10.5953 8.60756L10.6031 12.061L9.14038 11.1622V6L10.5954 8.60756H10.5953Z" fill="#FAB718" />
    <path d="M14.7689 9.44144L11.9704 9.44405L10.5953 8.60756L9.14038 6L14.7688 9.44144H14.7689Z" fill="#ED6F26" />
    <path d="M10.6031 15.44V13.7645L9.14038 12.8828L9.14118 18.0501L10.6031 15.44Z" fill="#63B22F" />
    <path d="M11.967 14.6097L6.45918 11.2314L5 8.62305L14.763 14.6063L11.9669 14.6097H11.967Z" fill="#1487C9" />
    <path d="M9.14124 18.05L10.6029 15.4398L11.9669 14.6094L14.7629 14.606L9.14124 18.05Z" fill="#017F36" />
    <path d="M5.00171 15.4256L9.1523 12.883L7.75689 12.0269L6.45928 12.8224L5.00171 15.4256Z" fill="#984995" />
    <path
      d="M16.5098 14.3684C16.4777 14.4094 16.4354 14.4403 16.3847 14.4612C16.3326 14.4823 16.277 14.4931 16.2208 14.4929C16.1649 14.4937 16.1094 14.4843 16.0568 14.4654C16.0096 14.4482 15.9665 14.4215 15.9301 14.3869C15.8942 14.3522 15.866 14.3103 15.8473 14.2639C15.8272 14.2132 15.8171 14.159 15.8177 14.1044C15.8177 14.0502 15.8271 13.9999 15.8464 13.9524C15.865 13.9047 15.892 13.8638 15.9259 13.8294C15.9597 13.7944 16.0003 13.7677 16.0459 13.7468C16.0924 13.7267 16.1431 13.7159 16.1988 13.7159C16.2589 13.7159 16.3146 13.7234 16.3653 13.7384C16.416 13.7534 16.4591 13.7785 16.4945 13.8137L16.4329 13.9181C16.4031 13.8911 16.3679 13.8706 16.3297 13.8579C16.2934 13.8462 16.2555 13.8403 16.2174 13.8404C16.1836 13.8404 16.1515 13.847 16.1203 13.8596C16.0895 13.872 16.0614 13.8901 16.0374 13.9131C16.013 13.9367 15.9937 13.9652 15.9808 13.9966C15.9664 14.0292 15.9597 14.0651 15.9597 14.1052C15.9597 14.1462 15.9672 14.1829 15.9816 14.2146C15.9961 14.2473 16.0154 14.2749 16.0399 14.2982C16.0644 14.3217 16.0932 14.3392 16.1261 14.3509C16.1591 14.3635 16.1938 14.3693 16.2309 14.3693C16.2765 14.3693 16.318 14.36 16.3534 14.3425C16.3886 14.3255 16.4201 14.302 16.4464 14.2732L16.5098 14.3684ZM16.6838 14.4753V13.7317H16.8174V14.2857L17.2517 13.7317H17.3852V14.4754H17.2517V13.9214L16.8174 14.4754H16.6838V14.4753ZM18.2699 14.3684C18.2371 14.4097 18.194 14.4417 18.1449 14.4612C18.0928 14.4823 18.0371 14.4931 17.9809 14.4929C17.9251 14.4936 17.8696 14.4843 17.817 14.4654C17.7698 14.4482 17.7266 14.4215 17.6902 14.3869C17.6543 14.3522 17.6261 14.3103 17.6075 14.2639C17.5873 14.2132 17.5772 14.159 17.5778 14.1044C17.5778 14.0502 17.5872 13.9999 17.6066 13.9524C17.6252 13.9047 17.6523 13.8638 17.686 13.8294C17.7198 13.7944 17.7604 13.7677 17.806 13.7468C17.8542 13.7256 17.9063 13.715 17.9589 13.7159C18.019 13.7159 18.0747 13.7234 18.1254 13.7384C18.1761 13.7534 18.2192 13.7785 18.2548 13.8137L18.193 13.9181C18.1632 13.8911 18.1281 13.8705 18.09 13.8579C18.0537 13.8462 18.0158 13.8403 17.9776 13.8404C17.9105 13.8406 17.846 13.8666 17.7976 13.9131C17.7733 13.9369 17.754 13.9653 17.7409 13.9966C17.7266 14.0292 17.7198 14.0651 17.7198 14.1052C17.7198 14.1462 17.7275 14.1829 17.7418 14.2146C17.7562 14.2473 17.7756 14.2749 17.8001 14.2982C17.8246 14.3217 17.8534 14.3392 17.8863 14.3509C17.9193 14.3626 17.9539 14.3693 17.9911 14.3693C18.0368 14.3693 18.0773 14.36 18.1136 14.3425C18.1487 14.3255 18.1803 14.302 18.2066 14.2732L18.2699 14.3684ZM18.3384 13.7317H19.0237V13.8638H18.7482V14.4753H18.6147V13.8638H18.3392V13.7317H18.3384Z"
      fill="black" />
    <path fill-rule="evenodd" clip-rule="evenodd"
      d="M19.6474 14.4682C19.6981 14.4523 19.7412 14.428 19.7784 14.3947L19.7378 14.291C19.7133 14.3128 19.6804 14.3312 19.6407 14.3463C19.6009 14.3613 19.5561 14.3688 19.5071 14.3688C19.4336 14.3688 19.3728 14.3496 19.3246 14.3103C19.2765 14.2709 19.2503 14.2159 19.2443 14.1456H19.8223C19.8283 14.1197 19.8308 14.0905 19.8308 14.0563C19.8308 14.0052 19.8214 13.9594 19.8029 13.9176C19.7856 13.877 19.7603 13.8403 19.7286 13.8097C19.6964 13.7794 19.6584 13.7559 19.617 13.7404C19.5736 13.7236 19.5274 13.7151 19.4809 13.7153C19.4184 13.7153 19.3634 13.7262 19.3153 13.7463C19.2699 13.7654 19.2287 13.7935 19.1944 13.829C19.1611 13.8643 19.1355 13.9061 19.1193 13.9518C19.1015 14.0005 19.0926 14.052 19.0931 14.1039C19.0931 14.1624 19.1032 14.2158 19.1218 14.2635C19.1399 14.3097 19.1675 14.3516 19.203 14.3863C19.2376 14.4205 19.2798 14.4465 19.3297 14.4649C19.3831 14.4838 19.4395 14.4931 19.4962 14.4924C19.5475 14.4921 19.5985 14.4839 19.6474 14.4683V14.4682ZM19.3094 13.8958C19.3508 13.8582 19.4057 13.8399 19.475 13.8399C19.5401 13.8399 19.5925 13.8574 19.6305 13.8926C19.6686 13.9276 19.6888 13.9761 19.6922 14.0379H19.2359C19.2424 13.9832 19.2685 13.9327 19.3094 13.8959V13.8958Z"
      fill="black" />
    <path
      d="M20.0124 13.7319H20.1341L20.4231 14.1005L20.6968 13.7319H20.8151V14.4756H20.6817V13.9334L20.4214 14.2784H20.4163L20.1459 13.9333V14.4755H20.0124V13.7319Z"
      fill="black" />
    <path fill-rule="evenodd" clip-rule="evenodd"
      d="M21.1785 13.7346C21.138 13.7451 21.0992 13.7617 21.0636 13.7838L21.0991 13.8892C21.1295 13.8741 21.1599 13.8616 21.1903 13.8507C21.2208 13.8398 21.2596 13.8348 21.3061 13.8348C21.3433 13.8348 21.3729 13.8407 21.3957 13.8524C21.4185 13.8632 21.4354 13.88 21.4472 13.9001C21.4591 13.9201 21.4667 13.9451 21.4709 13.9744C21.4751 14.0036 21.4768 14.0353 21.4768 14.0697C21.4495 14.0506 21.4184 14.0378 21.3856 14.032C21.3538 14.0257 21.3216 14.0223 21.2892 14.022C21.2495 14.022 21.2123 14.0279 21.1768 14.0378C21.1413 14.0479 21.1109 14.0629 21.0864 14.083C21.0614 14.1031 21.0412 14.1285 21.0273 14.1573C21.0124 14.1889 21.0049 14.2235 21.0053 14.2584C21.0053 14.3311 21.0265 14.388 21.0686 14.4282C21.1109 14.4682 21.1666 14.4882 21.2359 14.4882C21.2985 14.4882 21.3484 14.4774 21.3864 14.4557C21.4244 14.4339 21.4548 14.4089 21.4768 14.3805V14.4766H21.6019V14.0204C21.6019 13.9233 21.5808 13.8482 21.5377 13.7955C21.4954 13.7429 21.4202 13.7162 21.3138 13.7162C21.2664 13.7162 21.2216 13.7228 21.1785 13.7346ZM21.4017 14.3371C21.3713 14.3588 21.3315 14.3687 21.2825 14.3687C21.2394 14.3687 21.2056 14.3579 21.182 14.337C21.1583 14.3153 21.1465 14.2869 21.1465 14.2517C21.1465 14.2309 21.1507 14.2134 21.16 14.1975C21.1693 14.1816 21.182 14.1691 21.1964 14.159C21.2121 14.1485 21.2295 14.1409 21.2479 14.1364C21.2674 14.1314 21.2867 14.1289 21.307 14.1289C21.373 14.1289 21.4295 14.1448 21.476 14.1782V14.2726C21.4541 14.2972 21.4291 14.3188 21.4017 14.337V14.3371ZM22.7808 13.4705C22.8078 13.458 22.8331 13.4371 22.8568 13.4062L22.7841 13.3018C22.7655 13.3269 22.7444 13.3443 22.7207 13.3536C22.6956 13.3634 22.6696 13.3707 22.643 13.3753L22.6177 13.3798C22.5957 13.3836 22.5721 13.3878 22.5467 13.392C22.5059 13.3996 22.4662 13.4119 22.4284 13.4288C22.3683 13.4547 22.3202 13.4897 22.2839 13.534C22.2475 13.5783 22.2188 13.6284 22.1993 13.6836C22.1796 13.7396 22.1663 13.7976 22.1597 13.8566C22.1528 13.9168 22.1495 13.9744 22.1495 14.0295C22.1495 14.1006 22.1588 14.1649 22.1774 14.2225C22.196 14.2802 22.2221 14.3286 22.2568 14.3679C22.2914 14.4081 22.3329 14.4382 22.3819 14.4599C22.4309 14.4816 22.4858 14.4924 22.5475 14.4924C22.6041 14.4924 22.6565 14.4816 22.7038 14.4615C22.7494 14.4422 22.7908 14.4141 22.8256 14.3788C22.8593 14.3445 22.8864 14.3035 22.905 14.2576C22.9244 14.2116 22.9337 14.1623 22.9337 14.1105C22.9337 14.0546 22.9253 14.0037 22.9092 13.9585C22.8944 13.9154 22.8708 13.8759 22.8399 13.8424C22.809 13.8095 22.7711 13.7838 22.7292 13.7671C22.6829 13.7489 22.6336 13.7398 22.5838 13.7404C22.5517 13.7404 22.5205 13.7446 22.4901 13.7529C22.4605 13.7613 22.432 13.7734 22.4055 13.7889C22.3797 13.8036 22.3562 13.8219 22.3354 13.8431C22.3151 13.8641 22.2983 13.8875 22.2864 13.9142H22.283C22.2856 13.88 22.2898 13.8449 22.2974 13.809C22.305 13.773 22.3159 13.7387 22.3304 13.7061C22.3447 13.6736 22.3633 13.6443 22.3861 13.6176C22.4106 13.5906 22.4405 13.5692 22.474 13.5549C22.5108 13.5374 22.5497 13.5248 22.5898 13.5174L22.6163 13.5125C22.6427 13.5077 22.6679 13.5031 22.692 13.4981C22.7241 13.4914 22.7537 13.483 22.7808 13.4706V13.4705ZM22.3109 14.1849C22.2978 14.1428 22.2916 14.0988 22.2923 14.0546C22.298 14.0293 22.3083 14.0052 22.3228 13.9836C22.3371 13.961 22.3557 13.941 22.3777 13.9233C22.4273 13.8845 22.4887 13.8636 22.5517 13.8641C22.6303 13.8641 22.6895 13.8883 22.7309 13.936C22.7723 13.9844 22.7926 14.0446 22.7926 14.1173C22.7926 14.1532 22.7858 14.1858 22.774 14.2159C22.7626 14.2455 22.7454 14.2725 22.7233 14.2953C22.7012 14.3181 22.6748 14.3363 22.6456 14.3487C22.6152 14.3621 22.5821 14.3688 22.545 14.3688C22.5078 14.3688 22.474 14.3613 22.4428 14.3462C22.4117 14.3314 22.3843 14.3101 22.3624 14.2835C22.3395 14.254 22.3221 14.2206 22.3109 14.1849ZM23.9579 13.7321H23.8243V14.4758H23.9579V13.7321ZM23.1263 13.7321H23.2599V13.9552H23.3833C23.4415 13.9552 23.4888 13.9627 23.5269 13.9769C23.5649 13.9911 23.5954 14.0103 23.6182 14.0337C23.641 14.0571 23.657 14.0847 23.6664 14.1155C23.6756 14.1465 23.6807 14.1782 23.6807 14.2116C23.6807 14.2451 23.6756 14.2769 23.6647 14.3087C23.6545 14.3404 23.6367 14.3679 23.613 14.393C23.5894 14.4181 23.5573 14.4382 23.5167 14.4533C23.4762 14.4682 23.4272 14.4766 23.368 14.4766H23.1255V13.7321H23.1263ZM23.2599 14.0796V14.352H23.3571C23.4238 14.352 23.4711 14.3404 23.4982 14.3169C23.5253 14.2935 23.5387 14.2602 23.5387 14.2159C23.5387 14.1707 23.5244 14.1365 23.4974 14.113C23.4694 14.0896 23.4229 14.0779 23.3588 14.0779H23.2599V14.0796Z"
      fill="black" />
    <path
      d="M24.8409 14.3684C24.8088 14.4094 24.7665 14.4403 24.7158 14.4612C24.6638 14.4823 24.6081 14.4931 24.5519 14.4929C24.496 14.4937 24.4405 14.4843 24.3879 14.4654C24.3407 14.4483 24.2975 14.4215 24.2612 14.3869C24.2253 14.3521 24.1971 14.3103 24.1784 14.2639C24.1583 14.2132 24.1482 14.159 24.1488 14.1044C24.1488 14.0502 24.1581 14 24.1775 13.9524C24.1961 13.9047 24.2231 13.8638 24.257 13.8294C24.2908 13.7944 24.3313 13.7677 24.377 13.7468C24.4251 13.7256 24.4773 13.715 24.5299 13.7159C24.5899 13.7159 24.6457 13.7234 24.6964 13.7384C24.7471 13.7534 24.7902 13.7785 24.8256 13.8137L24.764 13.9181C24.7342 13.8911 24.699 13.8706 24.6609 13.8579C24.6246 13.8462 24.5866 13.8403 24.5485 13.8404C24.5148 13.8404 24.4826 13.847 24.4513 13.8596C24.4205 13.872 24.3925 13.8901 24.3685 13.9131C24.3442 13.9369 24.325 13.9653 24.3119 13.9966C24.2975 14.0292 24.2908 14.0651 24.2908 14.1052C24.2908 14.1462 24.2984 14.1829 24.3127 14.2146C24.3271 14.2473 24.3466 14.2749 24.3711 14.2982C24.3956 14.3217 24.4243 14.3392 24.4572 14.3509C24.4903 14.3626 24.5249 14.3693 24.562 14.3693C24.6076 14.3693 24.6482 14.36 24.6846 14.3425C24.7197 14.3255 24.7512 14.302 24.7775 14.2732L24.8409 14.3684ZM24.9093 13.7317H25.5946V13.8638H25.3191V14.4753H25.1856V13.8638H24.9102V13.7317H24.9093Z"
      fill="black" />
    <path fill-rule="evenodd" clip-rule="evenodd"
      d="M25.8735 13.7322H25.74V14.8066H25.8735V14.4415C25.9006 14.4591 25.9327 14.4716 25.9698 14.48C26.007 14.4883 26.0459 14.4924 26.0856 14.4924C26.1448 14.4924 26.198 14.4816 26.2462 14.4616C26.2924 14.4418 26.3343 14.4132 26.3695 14.3772C26.4042 14.3412 26.4304 14.2994 26.4489 14.2501C26.4675 14.2009 26.4769 14.1482 26.4769 14.0923C26.4769 14.037 26.4684 13.9861 26.4524 13.9401C26.4372 13.8964 26.4137 13.8562 26.3831 13.8215C26.353 13.7878 26.3157 13.7612 26.274 13.7438C26.2284 13.7242 26.1792 13.7145 26.1295 13.7154C26.0772 13.7154 26.0282 13.7254 25.9817 13.7455C25.9352 13.7656 25.8989 13.7897 25.8735 13.8198V13.7322ZM25.9665 13.87C26.0046 13.8499 26.046 13.8399 26.0908 13.8399C26.1296 13.8399 26.1643 13.8457 26.1956 13.8583C26.226 13.8708 26.2513 13.8884 26.2725 13.9118C26.2936 13.9352 26.3097 13.962 26.3198 13.9936C26.3308 14.0254 26.3359 14.0597 26.3359 14.0973C26.3359 14.1374 26.329 14.1733 26.3173 14.2067C26.3062 14.2384 26.2886 14.2675 26.2657 14.292C26.2426 14.3162 26.2147 14.3353 26.1837 14.3479C26.1492 14.3624 26.1121 14.3695 26.0747 14.3688C26.0384 14.3688 26.0046 14.3647 25.9725 14.3564C25.9373 14.3468 25.9039 14.3315 25.8736 14.3112V13.9426C25.8972 13.9143 25.9286 13.8901 25.9665 13.87ZM27.501 13.7321H27.3675V14.4758H27.501V13.7321ZM26.6687 13.7321H26.8022V13.9552H26.9255C26.9839 13.9552 27.0312 13.9627 27.0692 13.9769C27.1073 13.9911 27.1377 14.0103 27.1605 14.0337C27.1833 14.0571 27.1994 14.0847 27.2086 14.1156C27.2179 14.1465 27.223 14.1782 27.223 14.2117C27.223 14.2451 27.2179 14.2769 27.207 14.3087C27.1969 14.3404 27.1791 14.3679 27.1554 14.393C27.1318 14.4181 27.0997 14.4382 27.0591 14.4533C27.0185 14.4682 26.9695 14.4766 26.9104 14.4766H26.6679V13.7321H26.6687ZM26.8031 14.0796V14.352H26.9003C26.967 14.352 27.0144 14.3404 27.0414 14.3169C27.0684 14.2935 27.082 14.2602 27.082 14.2159C27.082 14.1707 27.0676 14.1365 27.0406 14.113C27.0127 14.0896 26.9662 14.0779 26.902 14.0779H26.8031V14.0796Z"
      fill="black" />
    <path
      d="M28.1416 14.0904L28.4271 14.4756H28.2633L28.0426 14.1748L27.8187 14.4756H27.6633L27.9471 14.0971L27.6801 13.7319H27.8441L28.0478 14.0127L28.2547 13.7319H28.4103L28.1416 14.0904ZM16.411 15.3948H16.0012V16.0147H15.8676V15.2711H16.5444V16.0147H16.411V15.3948ZM17.3024 15.4031H17.0388L17.0303 15.5284C17.021 15.6346 17.0084 15.7198 16.9906 15.7849C16.9728 15.8502 16.9508 15.9003 16.9255 15.9353C16.9002 15.9705 16.8706 15.9947 16.8368 16.0064C16.8018 16.0191 16.7649 16.0253 16.7278 16.0248L16.7177 15.8961C16.732 15.8969 16.7489 15.8935 16.7675 15.8852C16.7861 15.8769 16.8047 15.8585 16.8224 15.831C16.8402 15.8025 16.8562 15.7624 16.8706 15.7106C16.885 15.658 16.8943 15.5895 16.8993 15.5033L16.9129 15.2719H17.4359V16.0156H17.3024V15.403V15.4031Z"
      fill="black" />
    <path fill-rule="evenodd" clip-rule="evenodd"
      d="M17.796 15.2728C17.7528 15.2844 17.7139 15.3011 17.681 15.322L17.7166 15.4273C17.747 15.4123 17.7774 15.3997 17.8077 15.3889C17.8382 15.378 17.8771 15.373 17.9235 15.373C17.9608 15.373 17.9903 15.3788 18.0131 15.3905C18.036 15.4014 18.0529 15.4181 18.0647 15.4382C18.0765 15.4582 18.0841 15.4833 18.0883 15.5125C18.0925 15.5418 18.0942 15.5735 18.0942 15.6078C18.0669 15.5888 18.0357 15.5759 18.0029 15.5702C17.9712 15.5639 17.939 15.5605 17.9066 15.5602C17.867 15.5602 17.8297 15.566 17.7943 15.576C17.7587 15.5861 17.7283 15.6011 17.7038 15.6212C17.6788 15.6413 17.6586 15.6667 17.6447 15.6955C17.6298 15.7272 17.6223 15.7617 17.6228 15.7967C17.6228 15.8693 17.6438 15.9262 17.6861 15.9663C17.7283 16.0063 17.7841 16.0264 17.8534 16.0264C17.916 16.0264 17.9658 16.0156 18.0038 15.9938C18.0418 15.9721 18.0722 15.947 18.0942 15.9186V16.0147H18.2193V15.5585C18.2193 15.4616 18.1982 15.3863 18.1551 15.3337C18.1128 15.281 18.0376 15.2544 17.9311 15.2544C17.8855 15.2544 17.84 15.2606 17.796 15.2727V15.2728ZM18.0199 15.8751C17.9896 15.8969 17.9498 15.9069 17.9008 15.9069C17.8568 15.9069 17.8239 15.8961 17.8003 15.8751C17.7766 15.8534 17.7648 15.825 17.7648 15.7899C17.7648 15.769 17.769 15.7515 17.7783 15.7356C17.7875 15.7197 17.8003 15.7072 17.8147 15.6971C17.829 15.6871 17.8467 15.6796 17.8662 15.6745C17.8855 15.6696 17.9054 15.6671 17.9253 15.6671C17.9912 15.6671 18.0478 15.683 18.0943 15.7163V15.8107C18.0724 15.8353 18.0474 15.8569 18.0199 15.8751Z"
      fill="black" />
    <path d="M18.3502 15.271H19.0355V15.4029H18.76V16.0146H18.6265V15.403H18.3511V15.271H18.3502Z" fill="black" />
    <path fill-rule="evenodd" clip-rule="evenodd"
      d="M19.6592 16.0074C19.7099 15.9915 19.753 15.9672 19.7902 15.9339L19.7496 15.8302C19.7251 15.852 19.6922 15.8704 19.6524 15.8855C19.6127 15.9005 19.5679 15.908 19.5189 15.908C19.4454 15.908 19.3846 15.8888 19.3364 15.8495C19.2882 15.8102 19.2621 15.7551 19.2561 15.6848H19.8342C19.84 15.659 19.8426 15.6297 19.8426 15.5954C19.8426 15.5445 19.8332 15.4985 19.8147 15.4568C19.7974 15.4162 19.7721 15.3796 19.7403 15.349C19.7081 15.3186 19.6702 15.295 19.6288 15.2796C19.5854 15.2628 19.5393 15.2543 19.4927 15.2545C19.4302 15.2545 19.3752 15.2654 19.3271 15.2855C19.2816 15.3045 19.2405 15.3327 19.2062 15.3682C19.1729 15.4035 19.1473 15.4453 19.131 15.491C19.1132 15.5397 19.1043 15.5912 19.1048 15.643C19.1048 15.7016 19.115 15.755 19.1335 15.8027C19.1522 15.8503 19.18 15.8913 19.2147 15.9255C19.2493 15.9598 19.2916 15.9857 19.3415 16.0041C19.3949 16.023 19.4512 16.0324 19.5079 16.0317C19.5578 16.0317 19.6085 16.0232 19.6592 16.0074ZM19.3204 15.4342C19.3618 15.3966 19.4167 15.3782 19.486 15.3782C19.552 15.3782 19.6035 15.3966 19.6416 15.4309C19.6795 15.466 19.6998 15.5144 19.7032 15.5763H19.2469C19.2534 15.5216 19.2795 15.471 19.3204 15.4342ZM19.9077 15.2713H20.0767L20.3343 15.6298L20.0589 16.0149H19.895L20.1839 15.6297L19.9077 15.2712V15.2713ZM20.3673 15.2713H20.5008V16.0149H20.3673V15.2713ZM20.9782 16.0149L20.6842 15.6297L20.9588 15.2712H20.7931L20.5338 15.6297L20.8126 16.0149H20.9782ZM21.5884 16.0074C21.6391 15.9915 21.6822 15.9672 21.7193 15.9339L21.6787 15.8302C21.6542 15.852 21.6213 15.8704 21.5816 15.8855C21.5419 15.9005 21.4971 15.908 21.4481 15.908C21.3746 15.908 21.3137 15.8888 21.2655 15.8495C21.2174 15.8102 21.1912 15.7551 21.1853 15.6848H21.7633C21.7692 15.659 21.7717 15.6297 21.7717 15.5954C21.7717 15.5445 21.7625 15.4985 21.7438 15.4568C21.7265 15.4162 21.7012 15.3796 21.6695 15.349C21.6373 15.3186 21.5994 15.295 21.5579 15.2796C21.5146 15.2628 21.4684 15.2543 21.4219 15.2545C21.3594 15.2545 21.3045 15.2654 21.2563 15.2855C21.2108 15.3046 21.1697 15.3327 21.1355 15.3682C21.1021 15.4034 21.0765 15.4453 21.0603 15.491C21.0424 15.5397 21.0335 15.5912 21.0341 15.643C21.0341 15.7016 21.0442 15.755 21.0628 15.8027C21.0813 15.8503 21.1093 15.8913 21.1439 15.9255C21.1786 15.9598 21.2207 15.9857 21.2706 16.0041C21.3241 16.023 21.3804 16.0324 21.4371 16.0317C21.4885 16.0313 21.5395 16.0231 21.5884 16.0074ZM21.2495 15.4342C21.291 15.3966 21.346 15.3782 21.4152 15.3782C21.4803 15.3782 21.5326 15.3966 21.5707 15.4309C21.6087 15.466 21.629 15.5144 21.6323 15.5763H21.176C21.1825 15.5216 21.2086 15.471 21.2495 15.4342ZM22.3135 15.0215C22.2349 15.0215 22.1918 14.978 22.185 14.8911H22.0591C22.0591 14.9245 22.065 14.9546 22.076 14.983C22.087 15.0114 22.1031 15.0356 22.1242 15.0557C22.1453 15.0758 22.1724 15.0916 22.2036 15.1041C22.2349 15.1167 22.2712 15.1225 22.3126 15.1225C22.3506 15.1225 22.3845 15.1167 22.4149 15.1041C22.4453 15.0925 22.4706 15.0758 22.4926 15.0557C22.5137 15.0356 22.5307 15.0114 22.5424 14.983C22.5543 14.9546 22.5602 14.9245 22.5602 14.8911H22.4352C22.4293 14.978 22.3878 15.0215 22.3135 15.0215ZM21.9526 15.2712V16.0149H22.0861L22.5204 15.4609V16.0149H22.654V15.2712H22.5204L22.0861 15.8252V15.2712H21.9526Z"
      fill="black" />
  </g>
  <rect x="0.5" y="0.5" width="33" height="23" rx="3.5" stroke="#F2F3F4" />
  <defs>
    <clipPath id="clip0_15_1186">
      <rect width="24" height="12.0502" fill="white" transform="translate(5 6)" />
    </clipPath>
  </defs>
</svg>