<svg xmlns="http://www.w3.org/2000/svg" width="12" height="12" fill="none" viewBox="0 0 12 12">
  <path stroke="currentColor" stroke-linecap="round" stroke-linejoin="round" d="M10.125 7.075V9.2a1.09 1.09 0 0 1-.936 1.09 24.226 24.226 0 0 1-6.378 0 1.09 1.09 0 0 1-.936-1.09V7.075m8.25 0a1.09 1.09 0 0 0 .375-.83V4.352a1.09 1.09 0 0 0-.918-1.088 24.061 24.061 0 0 0-1.707-.193m2.25 4.003a1.02 1.02 0 0 1-.336.19c-1.191.396-2.465.61-3.789.61-1.324 0-2.598-.214-3.789-.61a1.007 1.007 0 0 1-.336-.19m0 0a1.09 1.09 0 0 1-.375-.83V4.352c0-.54.384-1.008.918-1.088a24.061 24.061 0 0 1 1.707-.193m3.75 0v-.447c0-.621-.504-1.125-1.125-1.125h-1.5c-.621 0-1.125.504-1.125 1.125v.447m3.75 0a24.334 24.334 0 0 0-3.75 0M6 6.375h.004v.004H6v-.004Z"/>
</svg>
