<svg xmlns="http://www.w3.org/2000/svg" width="16" height="16" fill="none" viewBox="0 0 16 16">
  <path stroke="currentColor" stroke-linecap="round" stroke-linejoin="round" stroke-width="1.2" d="M13.5 9.433v2.834c0 .73-.525 1.357-1.248 1.453a32.295 32.295 0 0 1-8.504 0A1.452 1.452 0 0 1 2.5 12.267V9.433m11 0c.315-.268.5-.674.5-1.107V5.804c0-.72-.512-1.343-1.225-1.45a32.093 32.093 0 0 0-2.275-.258m3 5.337c-.13.11-.28.197-.449.253A15.983 15.983 0 0 1 8 10.5c-1.765 0-3.464-.286-5.051-.814a1.343 1.343 0 0 1-.449-.253m0 0A1.454 1.454 0 0 1 2 8.326V5.804c0-.72.512-1.343 1.225-1.45.75-.112 1.509-.199 2.275-.258m5 0V3.5A1.5 1.5 0 0 0 9 2H7a1.5 1.5 0 0 0-1.5 1.5v.596m5 0a32.444 32.444 0 0 0-5 0M8 8.5h.005v.005H8V8.5Z"/>
</svg>
