<svg xmlns="http://www.w3.org/2000/svg" width="12" height="12" fill="none" viewBox="0 0 12 12">
  <path stroke="currentColor" stroke-linecap="round" stroke-linejoin="round" d="M5.171 1.97a.562.562 0 0 1 .555-.47h.547c.275 0 .51.199.555.47l.074.447a.628.628 0 0 0 .39.465.622.622 0 0 0 .603-.054l.369-.263a.562.562 0 0 1 .724.06l.387.386c.195.195.22.501.06.725l-.263.369a.622.622 0 0 0-.054.602.628.628 0 0 0 .465.39l.447.075c.27.045.47.28.47.555v.546c0 .275-.2.51-.47.555l-.447.075a.628.628 0 0 0-.465.39.622.622 0 0 0 .054.602l.263.369c.16.224.134.53-.06.725l-.387.386a.563.563 0 0 1-.725.06l-.368-.263a.622.622 0 0 0-.602-.054.628.628 0 0 0-.39.465l-.075.447a.562.562 0 0 1-.555.47h-.547a.562.562 0 0 1-.555-.47l-.074-.447a.628.628 0 0 0-.39-.465.622.622 0 0 0-.603.054l-.368.263a.562.562 0 0 1-.725-.06l-.387-.386a.562.562 0 0 1-.06-.725l.264-.369a.622.622 0 0 0 .053-.602.628.628 0 0 0-.464-.39l-.447-.075a.563.563 0 0 1-.47-.555v-.546c0-.275.198-.51.47-.555l.447-.075a.628.628 0 0 0 .464-.39.622.622 0 0 0-.053-.602l-.264-.369a.563.563 0 0 1 .06-.725l.387-.386a.562.562 0 0 1 .725-.06l.369.263a.622.622 0 0 0 .601.054.628.628 0 0 0 .39-.465l.075-.447Z"/>
  <path stroke="currentColor" stroke-linecap="round" stroke-linejoin="round" d="M7.5 6a1.5 1.5 0 1 1-3 0 1.5 1.5 0 0 1 3 0Z"/>
</svg>
