<svg xmlns="http://www.w3.org/2000/svg" width="16" height="16" fill="none" viewBox="0 0 16 16">
  <path stroke="currentColor" stroke-linecap="round" stroke-linejoin="round" stroke-width="1.2" d="M6.895 2.627A.75.75 0 0 1 7.635 2h.73a.75.75 0 0 1 .739.627l.1.596c.046.282.255.51.52.62a.83.83 0 0 0 .803-.072l.491-.351a.75.75 0 0 1 .966.08l.516.515a.75.75 0 0 1 .08.966l-.351.492a.83.83 0 0 0-.072.803c.11.265.337.473.62.52l.596.1a.75.75 0 0 1 .627.74v.729a.75.75 0 0 1-.627.74l-.596.099c-.283.047-.51.256-.62.52a.83.83 0 0 0 .072.803l.35.492a.75.75 0 0 1-.08.966l-.515.516a.75.75 0 0 1-.966.08l-.492-.352a.83.83 0 0 0-.802-.071c-.265.11-.474.337-.52.62l-.1.595a.75.75 0 0 1-.74.627h-.73a.75.75 0 0 1-.739-.627l-.1-.596c-.046-.282-.255-.51-.52-.62a.83.83 0 0 0-.802.072l-.492.352a.75.75 0 0 1-.966-.08l-.516-.516a.75.75 0 0 1-.08-.966l.351-.492a.83.83 0 0 0 .072-.803.837.837 0 0 0-.62-.52l-.596-.1A.75.75 0 0 1 2 8.364v-.729a.75.75 0 0 1 .626-.74l.596-.099c.283-.047.51-.256.62-.52a.83.83 0 0 0-.072-.803l-.35-.492a.75.75 0 0 1 .08-.966l.515-.516a.75.75 0 0 1 .966-.08l.492.352a.83.83 0 0 0 .802.071c.265-.11.474-.337.52-.62l.1-.595Z"/>
  <path stroke="currentColor" stroke-linecap="round" stroke-linejoin="round" stroke-width="1.2" d="M10 8a2 2 0 1 1-4 0 2 2 0 0 1 4 0Z"/>
</svg>
