<svg xmlns="http://www.w3.org/2000/svg" width="12" height="12" fill="none" viewBox="0 0 12 12">
  <path stroke="currentColor" stroke-linecap="round" stroke-linejoin="round" d="M6 10.5a4.502 4.502 0 0 0 4.358-3.374M6 10.5a4.502 4.502 0 0 1-4.358-3.374M6 10.5c1.243 0 2.25-2.015 2.25-4.5S7.243 1.5 6 1.5m0 9c-1.243 0-2.25-2.015-2.25-4.5S4.757 1.5 6 1.5m0 0c1.683 0 3.15.923 3.922 2.291M6 1.5c-1.683 0-3.15.923-3.922 2.291m7.844 0A5.977 5.977 0 0 1 6 5.25c-1.5 0-2.87-.55-3.922-1.459m7.844 0a4.512 4.512 0 0 1 .436 3.335m0 0A8.96 8.96 0 0 1 6 8.25a8.96 8.96 0 0 1-4.358-1.124m0 0a4.508 4.508 0 0 1 .436-3.335"/>
</svg>
