<svg xmlns="http://www.w3.org/2000/svg" width="16" height="16" fill="none" viewBox="0 0 16 16">
  <path stroke="currentColor" stroke-linecap="round" stroke-linejoin="round" stroke-width="1.2" d="M8 14a6.003 6.003 0 0 0 5.81-4.498M8 14a6.003 6.003 0 0 1-5.81-4.498M8 14c1.657 0 3-2.686 3-6S9.657 2 8 2m0 12c-1.657 0-3-2.686-3-6s1.343-6 3-6m0 0c2.243 0 4.2 1.231 5.229 3.055M8 2a5.998 5.998 0 0 0-5.229 3.055m10.458 0A7.969 7.969 0 0 1 8 7a7.969 7.969 0 0 1-5.229-1.945m10.458 0a6.012 6.012 0 0 1 .582 4.447m0 0A11.946 11.946 0 0 1 8 11c-2.108 0-4.089-.543-5.81-1.498m0 0a6.01 6.01 0 0 1 .581-4.447"/>
</svg>
