<svg xmlns="http://www.w3.org/2000/svg" width="12" height="12" fill="none" viewBox="0 0 12 12">
  <path stroke="currentColor" stroke-linecap="round" stroke-linejoin="round" d="M4.313 6a.188.188 0 1 1-.376 0 .188.188 0 0 1 .376 0Zm0 0h-.188m2.063 0a.188.188 0 1 1-.376 0 .188.188 0 0 1 .375 0Zm0 0H6m2.063 0a.188.188 0 1 1-.376 0 .188.188 0 0 1 .375 0Zm0 0h-.188M10.5 6c0 2.278-2.015 4.125-4.5 4.125-.444 0-.872-.059-1.277-.169a2.987 2.987 0 0 1-2.255.497 2.24 2.24 0 0 0 .489-1.013c.045-.228-.067-.45-.234-.613C1.965 8.09 1.5 7.094 1.5 6c0-2.278 2.015-4.125 4.5-4.125S10.5 3.722 10.5 6Z"/>
</svg>
