<svg xmlns="http://www.w3.org/2000/svg" width="16" height="16" fill="none" viewBox="0 0 16 16">
  <path stroke="currentColor" stroke-linecap="round" stroke-linejoin="round" stroke-width="1.2" d="M5.75 8a.25.25 0 1 1-.5 0 .25.25 0 0 1 .5 0Zm0 0H5.5m2.75 0a.25.25 0 1 1-.5 0 .25.25 0 0 1 .5 0Zm0 0H8m2.75 0a.25.25 0 1 1-.5 0 .25.25 0 0 1 .5 0Zm0 0h-.25M14 8c0 3.038-2.686 5.5-6 5.5a6.508 6.508 0 0 1-1.703-.225 3.981 3.981 0 0 1-3.006.662 3 3 0 0 0 .652-1.35c.06-.304-.09-.6-.312-.817C2.62 10.785 2 9.46 2 8c0-3.038 2.686-5.5 6-5.5s6 2.462 6 5.5Z"/>
</svg>
