<svg width="24" height="24" viewBox="0 0 24 24" fill="none" xmlns="http://www.w3.org/2000/svg">
<path d="M19.2128 13.1966C19.8762 13.8444 20.5764 14.4537 21.1715 15.1668C21.4343 15.4836 21.6831 15.8106 21.8735 16.1783C22.1433 16.7011 21.899 17.2763 21.4303 17.3075L18.5166 17.3062C17.7651 17.3685 17.1656 17.066 16.6616 16.5522C16.2582 16.1413 15.8846 15.704 15.4967 15.2792C15.3377 15.1056 15.1712 14.9423 14.9724 14.8131C14.5746 14.555 14.2294 14.634 14.0021 15.0488C13.7706 15.4708 13.718 15.938 13.6953 16.4082C13.6641 17.0943 13.4567 17.2747 12.7675 17.3061C11.2947 17.3756 9.89689 17.1527 8.59834 16.4097C7.45349 15.7547 6.56576 14.83 5.79303 13.7832C4.28862 11.7448 3.13647 9.50487 2.10101 7.20222C1.86792 6.68344 2.03839 6.40496 2.61081 6.39508C3.56132 6.3766 4.5117 6.37793 5.46334 6.39375C5.84967 6.39941 6.10541 6.62098 6.25459 6.98594C6.76885 8.25042 7.3981 9.45347 8.18795 10.5686C8.3983 10.8655 8.61279 11.1624 8.91818 11.3713C9.25607 11.6027 9.51333 11.526 9.67228 11.1496C9.77314 10.9109 9.81732 10.6539 9.84005 10.3983C9.91536 9.51886 9.92528 8.64093 9.79322 7.7646C9.71212 7.21769 9.40408 6.86363 8.85833 6.76015C8.57986 6.70738 8.6213 6.60375 8.75615 6.4448C8.99033 6.17066 9.2106 6 9.6497 6H12.9426C13.461 6.1023 13.5761 6.33519 13.6471 6.85679L13.6499 10.5145C13.6442 10.7164 13.7507 11.3156 14.1145 11.4493C14.4055 11.5444 14.5974 11.3115 14.7721 11.127C15.5605 10.2902 16.1232 9.30132 16.6259 8.27734C16.849 7.82707 17.0408 7.35949 17.2267 6.89226C17.3644 6.54558 17.5806 6.375 17.9711 6.38254L21.1403 6.38535C21.2343 6.38535 21.3294 6.38672 21.4204 6.4023C21.9544 6.49332 22.1008 6.72304 21.9358 7.24453C21.6759 8.06269 21.1703 8.74452 20.6758 9.42948C20.1473 10.1608 19.5821 10.8671 19.058 11.6027C18.5764 12.2746 18.6146 12.6131 19.2128 13.1966Z" fill="#436EAB"/>
</svg>
