<svg width="24" height="24" viewBox="0 0 24 24" fill="none" xmlns="http://www.w3.org/2000/svg">
  <path
    d="M16.2972 2H13.4556C10.5767 2 7.67181 4.12586 7.67181 8.87523C7.67181 11.3353 8.71442 13.2513 10.6257 14.3409L7.12755 20.6726C6.96169 20.9721 6.95735 21.3114 7.11591 21.5804C7.27071 21.8431 7.5538 22 7.87286 22H9.64243C10.0444 22 10.3579 21.8057 10.5082 21.4653L13.7881 15.05H14.0274V21.2004C14.0274 21.6339 14.3932 22 14.8261 22H16.372C16.8575 22 17.1964 21.661 17.1964 21.1756V2.87512C17.1965 2.35988 16.8267 2 16.2972 2ZM14.0274 12.2002H13.6052C11.9679 12.2002 10.9904 10.8637 10.9904 8.62512C10.9904 5.84156 12.2252 4.8498 13.3808 4.8498H14.0274V12.2002Z"
    fill="#D7143A" />
</svg>