<svg xmlns="http://www.w3.org/2000/svg" width="12" height="12" fill="none" viewBox="0 0 12 12">
  <path fill="currentColor" stroke="currentColor" stroke-linecap="round" stroke-linejoin="round" d="M5.74 1.75a.281.281 0 0 1 .52 0l1.063 2.555c.04.098.132.164.237.172l2.76.222c.248.02.35.33.16.494l-2.103 1.8a.281.281 0 0 0-.09.28l.642 2.692a.281.281 0 0 1-.42.305L6.147 8.827a.281.281 0 0 0-.294 0L3.491 10.27a.281.281 0 0 1-.42-.305l.642-2.693a.281.281 0 0 0-.09-.279l-2.102-1.8a.281.281 0 0 1 .16-.494l2.76-.222a.281.281 0 0 0 .236-.172L5.74 1.75Z"/>
</svg>
