<svg xmlns="http://www.w3.org/2000/svg" width="16" height="16" fill="none" viewBox="0 0 16 16">
  <path fill="currentColor" stroke="currentColor" stroke-linecap="round" stroke-linejoin="round" stroke-width="1.2" d="M7.654 2.333a.375.375 0 0 1 .692 0L9.764 5.74c.054.13.176.219.316.23l3.679.295a.375.375 0 0 1 .214.659l-2.803 2.4a.375.375 0 0 0-.121.372l.856 3.59a.375.375 0 0 1-.56.407l-3.15-1.923a.375.375 0 0 0-.39 0l-3.15 1.923a.375.375 0 0 1-.56-.407l.856-3.59a.375.375 0 0 0-.12-.372l-2.804-2.4a.375.375 0 0 1 .214-.66l3.68-.294c.14-.011.261-.1.315-.23l1.418-3.407Z"/>
</svg>
