<svg xmlns="http://www.w3.org/2000/svg" width="24" height="24" fill="none" viewBox="0 0 24 24">
  <path fill="currentColor" d="m4.5 9.75 6.704-6.705a1.126 1.126 0 0 1 1.591 0L19.5 9.75v10.125c0 .621-.504 1.125-1.125 1.125H5.625A1.125 1.125 0 0 1 4.5 19.875V9.75Z"/>
  <path stroke="currentColor" stroke-linecap="round" stroke-linejoin="round" stroke-width="1.5" d="m2.25 12 8.954-8.955a1.126 1.126 0 0 1 1.591 0L21.75 12M4.5 9.75v10.125c0 .621.504 1.125 1.125 1.125H9.75v-4.875c0-.621.504-1.125 1.125-1.125h2.25c.621 0 1.125.504 1.125 1.125V21h4.125c.621 0 1.125-.504 1.125-1.125V9.75M8.25 21h8.25"/>
  <path stroke="#fff" stroke-linecap="square" stroke-linejoin="round" stroke-width="1.5" d="M9.75 21v-4.875c0-.621.504-1.125 1.125-1.125h2.25c.621 0 1.125.504 1.125 1.125V21"/>
</svg>
