<svg xmlns="http://www.w3.org/2000/svg" width="12" height="12" fill="none" viewBox="0 0 12 12">
  <path stroke="currentColor" stroke-linecap="round" stroke-linejoin="round" d="M8.356 2.165a4.512 4.512 0 0 1 1.48 1.479m-1.48-1.479-1.724 2.07m1.724-2.07a4.507 4.507 0 0 0-4.712 0m6.191 1.479-2.07 1.724m2.07-1.724a4.507 4.507 0 0 1 0 4.712m-2.07-2.988a1.868 1.868 0 0 0-1.133-1.134m1.134 1.134a1.89 1.89 0 0 1 0 1.264M6.632 4.234a1.883 1.883 0 0 0-1.264 0m2.398 2.398a1.868 1.868 0 0 1-1.134 1.134m1.134-1.134 2.07 1.724m0 0a4.512 4.512 0 0 1-1.48 1.48m0 0-1.724-2.07m1.724 2.07a4.507 4.507 0 0 1-4.712 0m2.988-2.07a1.883 1.883 0 0 1-1.264 0m0 0a1.868 1.868 0 0 1-1.134-1.134m1.134 1.134-1.724 2.07m0 0a4.512 4.512 0 0 1-1.479-1.48m0 0 2.07-1.724m-2.07 1.724a4.507 4.507 0 0 1 0-4.712m2.07 2.988a1.883 1.883 0 0 1 0-1.264m0 0a1.868 1.868 0 0 1 1.133-1.134M4.234 5.368 2.165 3.644m3.203.59L3.644 2.165m0 0a4.512 4.512 0 0 0-1.479 1.479"/>
</svg>
