<svg xmlns="http://www.w3.org/2000/svg" width="16" height="16" fill="none" viewBox="0 0 16 16">
  <path stroke="currentColor" stroke-linecap="round" stroke-linejoin="round" stroke-width="1.2" d="M11.142 2.887a6.017 6.017 0 0 1 1.971 1.971m-1.971-1.971-2.3 2.759m2.3-2.76a6.01 6.01 0 0 0-6.284 0m8.255 1.972-2.759 2.3m2.76-2.3a6.01 6.01 0 0 1 0 6.284m-2.76-3.984a2.49 2.49 0 0 0-.586-.926 2.49 2.49 0 0 0-.926-.586m1.512 1.512a2.51 2.51 0 0 1 0 1.684M8.842 5.646a2.51 2.51 0 0 0-1.684 0m3.196 3.196a2.49 2.49 0 0 1-.586.926 2.49 2.49 0 0 1-.926.586m1.512-1.512 2.76 2.3m0 0a6.015 6.015 0 0 1-1.972 1.971m0 0-2.3-2.759m2.3 2.76a6.01 6.01 0 0 1-6.284 0m3.984-2.76a2.51 2.51 0 0 1-1.684 0m0 0a2.49 2.49 0 0 1-.926-.586 2.49 2.49 0 0 1-.586-.926m1.512 1.512-2.3 2.76m0 0a6.014 6.014 0 0 1-1.971-1.972m0 0 2.759-2.3m-2.76 2.3a6.01 6.01 0 0 1 0-6.284m2.76 3.984a2.51 2.51 0 0 1 0-1.684m0 0a2.49 2.49 0 0 1 .586-.926c.27-.27.588-.466.926-.586M5.646 7.158l-2.76-2.3m4.272.788-2.3-2.76m0 0a6.016 6.016 0 0 0-1.971 1.972"/>
</svg>
