<svg xmlns="http://www.w3.org/2000/svg" width="12" height="12" fill="none" viewBox="0 0 12 12">
  <path stroke="currentColor" stroke-linecap="round" stroke-linejoin="round" d="M1.875 3c0-.621.504-1.125 1.125-1.125h1.125c.621 0 1.125.504 1.125 1.125v1.125c0 .621-.504 1.125-1.125 1.125H3a1.125 1.125 0 0 1-1.125-1.125V3Zm0 4.875c0-.621.504-1.125 1.125-1.125h1.125c.621 0 1.125.504 1.125 1.125V9c0 .621-.504 1.125-1.125 1.125H3A1.125 1.125 0 0 1 1.875 9V7.875ZM6.75 3c0-.621.504-1.125 1.125-1.125H9c.621 0 1.125.504 1.125 1.125v1.125c0 .621-.504 1.125-1.125 1.125H7.875A1.125 1.125 0 0 1 6.75 4.125V3Zm0 4.875c0-.621.504-1.125 1.125-1.125H9c.621 0 1.125.504 1.125 1.125V9c0 .621-.504 1.125-1.125 1.125H7.875A1.125 1.125 0 0 1 6.75 9V7.875Z"/>
</svg>
