<svg xmlns="http://www.w3.org/2000/svg" width="16" height="16" fill="none" viewBox="0 0 16 16">
  <path stroke="currentColor" stroke-linecap="round" stroke-linejoin="round" stroke-width="1.2" d="M2.5 4A1.5 1.5 0 0 1 4 2.5h1.5A1.5 1.5 0 0 1 7 4v1.5A1.5 1.5 0 0 1 5.5 7H4a1.5 1.5 0 0 1-1.5-1.5V4Zm0 6.5A1.5 1.5 0 0 1 4 9h1.5A1.5 1.5 0 0 1 7 10.5V12a1.5 1.5 0 0 1-1.5 1.5H4A1.5 1.5 0 0 1 2.5 12v-1.5ZM9 4a1.5 1.5 0 0 1 1.5-1.5H12A1.5 1.5 0 0 1 13.5 4v1.5A1.5 1.5 0 0 1 12 7h-1.5A1.5 1.5 0 0 1 9 5.5V4Zm0 6.5A1.5 1.5 0 0 1 10.5 9H12a1.5 1.5 0 0 1 1.5 1.5V12a1.5 1.5 0 0 1-1.5 1.5h-1.5A1.5 1.5 0 0 1 9 12v-1.5Z"/>
</svg>
