<svg xmlns="http://www.w3.org/2000/svg" width="12" height="12" fill="none" viewBox="0 0 12 12">
  <path fill="currentColor" stroke="currentColor" stroke-linejoin="round" stroke-width="2" d="m5.822 10.455-.003-.001-.011-.007a4.309 4.309 0 0 1-.192-.108 12.589 12.589 0 0 1-2.122-1.585c-1.15-1.074-2.369-2.667-2.369-4.63 0-1.464 1.232-2.625 2.719-2.625.874 0 1.657.4 2.156 1.026A2.75 2.75 0 0 1 8.156 1.5c1.487 0 2.719 1.161 2.719 2.625 0 1.963-1.219 3.556-2.37 4.628a12.589 12.589 0 0 1-2.313 1.694l-.011.007-.003.001-.002.001a.376.376 0 0 1-.352 0h-.002Z"/>
</svg>
