<svg xmlns="http://www.w3.org/2000/svg" width="16" height="16" fill="none" viewBox="0 0 16 16">
  <path fill="currentColor" stroke="currentColor" stroke-linejoin="round" stroke-width="2" d="m7.763 13.94-.004-.002-.015-.008a6.947 6.947 0 0 1-.255-.145 16.786 16.786 0 0 1-2.83-2.114C3.125 10.24 1.5 8.117 1.5 5.5 1.5 3.548 3.142 2 5.125 2 6.291 2 7.335 2.533 8 3.368A3.666 3.666 0 0 1 10.875 2C12.858 2 14.5 3.548 14.5 5.5c0 2.617-1.625 4.741-3.16 6.17a16.78 16.78 0 0 1-3.029 2.23 6.947 6.947 0 0 1-.055.03l-.015.008-.004.002-.002.001a.501.501 0 0 1-.47 0h-.002Z"/>
</svg>
