<svg xmlns="http://www.w3.org/2000/svg" width="12" height="12" fill="none" viewBox="0 0 12 12">
  <path stroke="currentColor" stroke-linecap="round" stroke-linejoin="round" d="M7.833 1.944a1.125 1.125 0 0 0-1.083-.819h-1.5c-.515 0-.95.346-1.083.819m3.666 0c.027.097.042.2.042.306v0a.375.375 0 0 1-.375.375h-3a.375.375 0 0 1-.375-.375v0c0-.106.015-.209.042-.306m3.666 0c.323.024.644.055.964.092.55.064.953.538.953 1.092V9.75c0 .621-.504 1.125-1.125 1.125h-5.25A1.125 1.125 0 0 1 2.25 9.75V3.128c0-.554.403-1.028.953-1.092.32-.037.641-.068.964-.092"/>
</svg>
