<svg xmlns="http://www.w3.org/2000/svg" width="16" height="16" fill="none" viewBox="0 0 16 16">
  <path stroke="currentColor" stroke-linecap="round" stroke-linejoin="round" stroke-width="1.2" d="M10.444 2.592A1.5 1.5 0 0 0 9 1.5H7a1.5 1.5 0 0 0-1.444 1.092m4.888 0c.036.13.056.267.056.408v0a.5.5 0 0 1-.5.5H6a.5.5 0 0 1-.5-.5v0c0-.141.02-.278.056-.408m4.888 0c.43.032.859.074 1.285.123C12.463 2.8 13 3.433 13 4.17V13a1.5 1.5 0 0 1-1.5 1.5h-7A1.5 1.5 0 0 1 3 13V4.171c0-.738.537-1.37 1.271-1.456.426-.05.854-.09 1.285-.123"/>
</svg>
