<svg xmlns="http://www.w3.org/2000/svg" width="12" height="12" fill="none" viewBox="0 0 12 12">
  <path stroke="currentColor" stroke-linecap="round" stroke-linejoin="round" d="M7.681 2.607a4.126 4.126 0 1 1-4.662.917c.383.535.891.975 1.482 1.276a4.491 4.491 0 0 1 1.68-3.433 4.11 4.11 0 0 0 1.5 1.24Z"/>
  <path stroke="currentColor" stroke-linecap="round" stroke-linejoin="round" d="M6 9a1.875 1.875 0 0 0 .247-3.734 2.995 2.995 0 0 0-.962 1.773 2.987 2.987 0 0 1-1.067-.5A1.875 1.875 0 0 0 6 9Z"/>
</svg>
