<svg xmlns="http://www.w3.org/2000/svg" width="16" height="16" fill="none" viewBox="0 0 16 16">
  <path stroke="currentColor" stroke-linecap="round" stroke-linejoin="round" stroke-width="1.2" d="M10.242 3.476a5.501 5.501 0 1 1-6.217 1.222A5.525 5.525 0 0 0 6.001 6.4a5.989 5.989 0 0 1 2.24-4.577 5.473 5.473 0 0 0 2 1.653Z"/>
  <path stroke="currentColor" stroke-linecap="round" stroke-linejoin="round" stroke-width="1.2" d="M8 12a2.5 2.5 0 0 0 .33-4.978 3.993 3.993 0 0 0-1.283 2.364 3.983 3.983 0 0 1-1.422-.667A2.5 2.5 0 0 0 8 12Z"/>
</svg>
