<svg xmlns="http://www.w3.org/2000/svg" width="12" height="12" fill="none" viewBox="0 0 12 12">
  <path stroke="currentColor" stroke-linecap="round" stroke-linejoin="round" d="M10.5 6c0-.621-.504-1.125-1.125-1.125H7.5a1.5 1.5 0 1 1-3 0H2.625C2.004 4.875 1.5 5.379 1.5 6m9 0v3c0 .621-.504 1.125-1.125 1.125h-6.75A1.125 1.125 0 0 1 1.5 9V6m9 0V4.5M1.5 6V4.5m9 0c0-.621-.504-1.125-1.125-1.125h-6.75c-.621 0-1.125.504-1.125 1.125m9 0V3c0-.621-.504-1.125-1.125-1.125h-6.75C2.004 1.875 1.5 2.379 1.5 3v1.5"/>
</svg>
