<svg xmlns="http://www.w3.org/2000/svg" width="12" height="12" fill="none" viewBox="0 0 12 12">
  <path stroke="currentColor" stroke-linecap="round" stroke-linejoin="round" d="M1.5 6.563c0-.311.252-.563.563-.563h1.124c.311 0 .563.252.563.563v3.375c0 .31-.252.562-.563.562H2.063a.562.562 0 0 1-.563-.563V6.563Zm3.375-2.25c0-.311.252-.563.563-.563h1.125c.31 0 .562.252.562.563v5.625c0 .31-.252.562-.563.562H5.438a.562.562 0 0 1-.562-.563V4.314Zm3.375-2.25c0-.311.252-.563.563-.563h1.124c.311 0 .563.252.563.563v7.874a.563.563 0 0 1-.563.563H8.813a.562.562 0 0 1-.563-.563V2.064Z"/>
</svg>
