<svg xmlns="http://www.w3.org/2000/svg" width="16" height="16" fill="none" viewBox="0 0 16 16">
  <path stroke="currentColor" stroke-linecap="round" stroke-linejoin="round" stroke-width="1.2" d="M2 8.75A.75.75 0 0 1 2.75 8h1.5a.75.75 0 0 1 .75.75v4.5a.75.75 0 0 1-.75.75h-1.5a.75.75 0 0 1-.75-.75v-4.5Zm4.5-3A.75.75 0 0 1 7.25 5h1.5a.75.75 0 0 1 .75.75v7.5a.75.75 0 0 1-.75.75h-1.5a.75.75 0 0 1-.75-.75v-7.5Zm4.5-3a.75.75 0 0 1 .75-.75h1.5a.75.75 0 0 1 .75.75v10.5a.75.75 0 0 1-.75.75h-1.5a.75.75 0 0 1-.75-.75V2.75Z"/>
</svg>
