<svg xmlns="http://www.w3.org/2000/svg" width="12" height="12" fill="none" viewBox="0 0 12 12">
  <path stroke="currentColor" stroke-linecap="round" stroke-linejoin="round" d="M7.37 4.5 7.197 9M4.803 9 4.63 4.5m4.984-1.605c.17.026.341.054.511.083m-.511-.083L9.08 9.836a1.125 1.125 0 0 1-1.122 1.039H4.042A1.125 1.125 0 0 1 2.92 9.836l-.534-6.94m7.228 0a24.06 24.06 0 0 0-1.739-.199m-6 .281c.17-.03.34-.057.511-.083m0 0a24.06 24.06 0 0 1 1.739-.198m3.75 0V2.24a1.09 1.09 0 0 0-1.045-1.1 25.965 25.965 0 0 0-1.66 0 1.09 1.09 0 0 0-1.045 1.1v.458m3.75 0a24.334 24.334 0 0 0-3.75 0"/>
</svg>
