<svg xmlns="http://www.w3.org/2000/svg" width="16" height="16" fill="none" viewBox="0 0 16 16">
  <path stroke="currentColor" stroke-linecap="round" stroke-linejoin="round" stroke-width="1.2" d="m9.827 6-.23 6m-3.193 0-.23-6m6.644-2.14c.228.035.456.072.682.11m-.682-.11-.711 9.255A1.5 1.5 0 0 1 10.61 14.5H5.389a1.5 1.5 0 0 1-1.496-1.385L3.182 3.86m9.636 0a32.066 32.066 0 0 0-2.318-.264m-8 .375c.226-.04.454-.076.682-.11m0 0A32.072 32.072 0 0 1 5.5 3.595m5 0v-.61c0-.787-.607-1.443-1.393-1.468a34.62 34.62 0 0 0-2.214 0c-.786.025-1.393.681-1.393 1.467v.611m5 0a32.444 32.444 0 0 0-5 0"/>
</svg>
